<svg width="39" height="40" viewBox="0 0 39 40" fill="currentColor" xmlns="http://www.w3.org/2000/svg" class="fill-black dark:fill-white h-6 w-6"><path fill-rule="evenodd" clip-rule="evenodd" d="M19.4661 40C17.9444 40.0006 16.4484 39.607 15.124 38.8575L5.00862 33.1197C3.69611 32.384 2.60251 31.3129 1.8396 30.016C1.0767 28.7191 0.671862 27.2429 0.666473 25.7382V14.2627C0.671563 12.7578 1.07626 11.2812 1.83918 9.98394C2.6021 8.68671 3.69586 7.61538 5.00862 6.87951L15.124 1.14173C16.4488 0.393298 17.9445 0 19.4661 0C20.9877 0 22.4835 0.393298 23.8083 1.14173L33.9236 6.87951C35.1993 7.60029 36.2699 8.63482 37.0339 9.88509L23.7577 17.5282C22.4692 18.2833 21.3973 19.3579 20.6456 20.6483C19.8938 21.9387 19.4876 23.4012 19.4661 24.8944V40ZM38.2658 23.7655V25.7382C38.2607 27.2432 37.856 28.7198 37.0931 30.017C36.3302 31.3142 35.2364 32.3855 33.9236 33.1214L23.8083 38.8592C23.5267 39.0184 23.2365 39.1621 22.9392 39.2895V35.7253C22.9516 34.8374 23.1906 33.9673 23.6336 33.1976C24.0767 32.428 24.709 31.7842 25.4706 31.3275C29.2609 29.1235 33.0782 26.9668 36.8685 24.7628C37.363 24.4726 37.8306 24.1388 38.2658 23.7655ZM38.1949 13.1725C38.2423 13.5351 38.2659 13.9004 38.2658 14.2661V16.3468C38.2501 17.4565 37.9504 18.5437 37.3953 19.5047C36.8402 20.4657 36.0482 21.2685 35.0948 21.8366C31.3028 24.0388 27.4855 26.1956 23.6952 28.3996C23.4344 28.5547 23.182 28.7237 22.9392 28.9058V24.8944C22.9526 23.9971 23.1972 23.1184 23.6495 22.3432C24.1019 21.5681 24.7465 20.9227 25.5212 20.4696L38.1949 13.1725Z"></path></svg>